<?xml version="1.0" encoding="UTF-8"?>
<svg id="cob-logo-horizontal" xmlns="http://www.w3.org/2000/svg" viewBox="0 0 315.66 78.21">
  <defs>
    <style>
      .cls-1 {
        fill: #fff;
        stroke: #fff;
        stroke-miterlimit: 10;
      }
    </style>
  </defs>
  <path id="Bloomington" class="cls-1" d="m83.86,40.29h8.9c1.32-.03,2.63.05,3.94.22.83.13,1.62.45,2.32.92.7.48,1.28,1.12,1.71,1.86.46.79.7,1.69.68,2.6,0,2.09-1.22,3.98-3.13,4.83,1.23.32,2.33,1.02,3.13,2.02.73.96,1.12,2.15,1.09,3.36,0,1.03-.25,2.04-.71,2.95-.44.92-1.1,1.71-1.93,2.29-.9.6-1.94.97-3.01,1.06-.75.08-2.56.13-5.42.15h-7.58v-22.26Zm4.49,3.7v5.15h2.95c1.75,0,2.84-.03,3.26-.08.68-.05,1.32-.33,1.81-.8.45-.46.69-1.09.66-1.74.03-.61-.18-1.21-.57-1.68-.45-.46-1.05-.74-1.69-.78-.45-.05-1.73-.08-3.84-.08h-2.58Zm0,8.85v5.95h4.16c1.03.03,2.06-.01,3.08-.14.63-.1,1.21-.41,1.63-.89.44-.53.67-1.2.63-1.89.02-.6-.15-1.2-.49-1.7-.35-.48-.84-.84-1.4-1.02-1.31-.28-2.65-.39-3.99-.32h-3.63Zm18.07,9.7v-22.07h4.49v18.32h11.17v3.75h-15.67Zm17.96-10.99c-.06-1.95.29-3.9,1.02-5.71.5-1.13,1.21-2.17,2.07-3.05.81-.86,1.79-1.54,2.88-2,1.52-.61,3.16-.91,4.8-.88,2.94-.14,5.79.97,7.87,3.05,1.97,2.03,2.95,4.86,2.95,8.49,0,3.59-.98,6.41-2.93,8.43-2.06,2.07-4.91,3.18-7.83,3.04-2.94.14-5.81-.95-7.89-3.03-1.95-2.02-2.93-4.8-2.93-8.34h0Zm4.63-.15c-.15,2.06.47,4.1,1.75,5.73,2.24,2.45,6.04,2.61,8.48.38.13-.12.25-.24.36-.36,1.15-1.29,1.72-3.23,1.72-5.81,0-2.55-.56-4.45-1.68-5.71-2.39-2.46-6.33-2.52-8.79-.12,0,0,0,0,0,0-.05.05-.1.1-.15.15-1.13,1.27-1.7,3.19-1.7,5.75h0Zm19.55.15c-.06-1.95.29-3.9,1.02-5.71.5-1.13,1.21-2.17,2.07-3.05.81-.86,1.79-1.54,2.88-2,1.52-.61,3.16-.91,4.8-.88,2.94-.14,5.79.97,7.87,3.05,1.97,2.03,2.95,4.86,2.95,8.49s-.98,6.41-2.93,8.43c-2.06,2.07-4.91,3.18-7.83,3.04-2.94.14-5.81-.95-7.9-3.03-1.95-2.02-2.93-4.8-2.93-8.34h0Zm4.63-.15c-.15,2.06.47,4.1,1.75,5.73,2.24,2.45,6.04,2.61,8.48.38,0,0,0,0,0,0,.13-.12.25-.24.36-.36,1.15-1.29,1.72-3.23,1.72-5.81,0-2.55-.56-4.45-1.68-5.71-2.39-2.46-6.33-2.52-8.79-.12-.05.05-.1.1-.14.15-1.13,1.27-1.7,3.19-1.7,5.75h0Zm20.4,11.14v-22.26h6.73l4.04,15.18,3.99-15.18h6.74v22.26h-4.17v-17.52l-4.42,17.52h-4.33l-4.4-17.52v17.52h-4.18Zm25.83,0v-22.26h4.49v22.26h-4.49Zm8.82,0v-22.26h4.37l9.11,14.86v-14.86h4.18v22.26h-4.51l-8.97-14.51v14.51h-4.17Zm32.76-8.18v-3.75h9.69v8.87c-1.19,1.06-2.58,1.88-4.09,2.41-1.73.68-3.57,1.04-5.43,1.04-2.12.05-4.22-.45-6.09-1.47-1.71-.95-3.07-2.42-3.9-4.19-.88-1.85-1.32-3.88-1.31-5.93-.04-2.15.46-4.27,1.46-6.18.96-1.79,2.45-3.24,4.27-4.14,1.66-.79,3.49-1.17,5.33-1.11,2.29-.13,4.56.48,6.48,1.74,1.56,1.17,2.63,2.89,3,4.81l-4.46.83c-.28-1.04-.9-1.95-1.77-2.59-.95-.66-2.09-.99-3.24-.95-1.76-.08-3.47.6-4.68,1.87-1.27,1.56-1.89,3.54-1.74,5.54,0,2.64.59,4.62,1.76,5.94,1.16,1.32,2.86,2.04,4.62,1.98.97,0,1.93-.19,2.83-.55.87-.33,1.69-.78,2.44-1.34v-2.82h-5.15Zm18.84,8.18v-18.49h-6.6v-3.76h17.69v3.76h-6.59v18.49h-4.49Zm12.51-10.99c-.06-1.95.29-3.9,1.02-5.71.51-1.13,1.21-2.16,2.07-3.05.81-.86,1.79-1.54,2.88-2,1.52-.61,3.16-.91,4.8-.88,2.94-.14,5.79.97,7.87,3.05,1.97,2.03,2.95,4.86,2.95,8.49s-.98,6.41-2.93,8.43c-2.06,2.07-4.91,3.18-7.83,3.04-2.94.14-5.81-.95-7.89-3.03-1.95-2.02-2.93-4.8-2.93-8.34h0Zm4.63-.15c-.15,2.06.47,4.1,1.75,5.73,2.24,2.45,6.04,2.61,8.48.38.13-.12.25-.24.36-.36,1.15-1.29,1.72-3.23,1.72-5.81,0-2.55-.56-4.45-1.68-5.71-2.39-2.46-6.33-2.52-8.79-.12,0,0,0,0,0,0-.05.05-.1.1-.15.15-1.13,1.27-1.7,3.19-1.7,5.75h0Zm20.51,11.14v-22.26h4.37l9.11,14.86v-14.86h4.18v22.26h-4.51l-8.97-14.51v14.51h-4.17Z"/>
  <path id="City_Of" data-name="City Of" class="cls-1" d="m97.45,26.22l2.56.65c-.4,1.88-1.42,3.57-2.89,4.81-1.46,1.13-3.27,1.71-5.11,1.65-1.78.08-3.55-.36-5.08-1.27-1.34-.9-2.38-2.18-2.98-3.69-.69-1.64-1.03-3.4-1.02-5.18-.04-1.82.35-3.63,1.15-5.27.72-1.45,1.87-2.64,3.28-3.41,1.44-.78,3.05-1.18,4.69-1.17,1.74-.06,3.46.46,4.88,1.48,1.36,1.04,2.32,2.5,2.76,4.15l-2.52.59c-.32-1.2-1-2.28-1.95-3.07-.94-.67-2.07-1.01-3.22-.96-1.32-.05-2.63.33-3.72,1.07-.99.7-1.73,1.71-2.1,2.87-.4,1.2-.61,2.45-.61,3.71-.03,1.47.21,2.93.72,4.3.41,1.14,1.2,2.11,2.23,2.75.99.6,2.13.92,3.28.91,1.32.04,2.61-.4,3.64-1.24,1.07-.96,1.78-2.26,2.02-3.68Zm6.14,6.78V13.67h2.56v19.33h-2.56Zm11.98,0V15.95h-6.37v-2.28h15.32v2.28h-6.39v17.05h-2.56Zm17.02,0v-8.19l-7.45-11.14h3.11l3.81,5.83c.7,1.09,1.36,2.18,1.96,3.27.58-1.01,1.28-2.15,2.11-3.41l3.74-5.68h2.98l-7.71,11.14v8.19h-2.56Zm18.83-9.41c-.16-2.75.77-5.46,2.58-7.53,1.73-1.82,4.16-2.81,6.67-2.72,1.69-.02,3.36.42,4.82,1.28,1.42.84,2.56,2.08,3.28,3.57.77,1.62,1.16,3.39,1.13,5.19.03,1.82-.38,3.63-1.19,5.26-.73,1.49-1.91,2.71-3.36,3.51-1.44.79-3.05,1.2-4.69,1.19-1.72.03-3.41-.43-4.88-1.32-1.41-.86-2.54-2.11-3.26-3.6-.73-1.5-1.11-3.15-1.11-4.83Zm2.64.04c-.11,2.01.56,3.98,1.88,5.5,2.51,2.61,6.66,2.69,9.27.18.07-.07.13-.13.2-.2,1.33-1.61,2-3.67,1.87-5.76.03-1.41-.24-2.82-.8-4.12-.49-1.12-1.3-2.07-2.33-2.73-1.03-.65-2.23-.99-3.45-.97-1.74-.03-3.43.65-4.67,1.87-1.3,1.24-1.96,3.32-1.96,6.23h0Zm19.27,9.37V13.67h13.04v2.28h-10.48v5.99h9.07v2.28h-9.07v8.78h-2.56Z"/>
  <path id="logo" class="cls-1" d="m45.17,2.12v13.65l6.66-6.66v14.3l-6.65,6.34-6.67-7.15-7.46,7.15-6.51-6.82v-13.65l6.66,6.66V2.29l-.08-.17,7.38,6.83,6.67-6.82Zm-26.81,10.88l-4.55-4.55v5.85h-5.2l4.55,4.39-4.39,4.22h13.71v-13.73l-4.13,3.82Zm45.81,5.82l4.55-4.55h-5.85v-5.2l-4.39,4.55-4.22-4.39v13.71h13.73l-3.82-4.13Zm-26.34,50.43l7.38,6.83-.08-.17v-13.65l6.66,6.66v-13.65l-6.51-6.82-7.46,7.15-6.67-7.15-6.65,6.34v14.29l6.66-6.66v13.65l6.67-6.82Zm20.14-4.06l4.55,4.55v-5.85h5.2l-4.55-4.39,4.38-4.22h-13.71v13.73l4.13-3.82Zm-45.81-5.82l-4.55,4.55h5.85v5.2l4.39-4.55,4.22,4.38v-13.71h-13.73l3.82,4.13Zm-3.22-20.44l-6.83,7.38.17-.08h13.65l-6.66,6.66h13.65l6.82-6.51-7.15-7.46,7.15-6.67-6.34-6.65h-14.3l6.66,6.66H2.12l6.82,6.67Zm59.18.63l6.83-7.38-.17.08h-13.65l6.66-6.66h-13.65l-6.82,6.51,7.15,7.46-7.15,6.67,6.34,6.65h14.3l-6.66-6.66h13.65l-6.82-6.67Z"/>
</svg>