<?xml version="1.0" encoding="utf-8"?>
<!-- Generator: Adobe Illustrator 27.4.1, SVG Export Plug-In . SVG Version: 6.00 Build 0)  -->
<svg version="1.1" id="cob-logo-horizontal" xmlns="http://www.w3.org/2000/svg" xmlns:xlink="http://www.w3.org/1999/xlink"
	 x="0px" y="0px" viewBox="0 0 313 74" style="enable-background:new 0 0 313 74;" xml:space="preserve">
<style type="text/css">
	.st0{fill:#FFFFFF;stroke:#FFFFFF;stroke-miterlimit:10;}
</style>
<path id="Bloomington" class="st0" d="M81.7,38.2h8.9c1.3,0,2.6,0,3.9,0.2c0.8,0.1,1.6,0.4,2.3,0.9c0.7,0.5,1.3,1.1,1.7,1.9
	c0.5,0.8,0.7,1.7,0.7,2.6c0,2.1-1.2,4-3.1,4.8c1.2,0.3,2.3,1,3.1,2c0.7,1,1.1,2.1,1.1,3.4c0,1-0.2,2-0.7,3c-0.4,0.9-1.1,1.7-1.9,2.3
	c-0.9,0.6-1.9,1-3,1.1c-0.7,0.1-2.6,0.1-5.4,0.2h-7.6L81.7,38.2z M86.2,41.9V47h2.9c1.8,0,2.8,0,3.3-0.1c0.7-0.1,1.3-0.3,1.8-0.8
	c0.5-0.5,0.7-1.1,0.7-1.7c0-0.6-0.2-1.2-0.6-1.7c-0.4-0.5-1.1-0.7-1.7-0.8c-0.4-0.1-1.7-0.1-3.8-0.1L86.2,41.9z M86.2,50.7v6h4.2
	c1,0,2.1,0,3.1-0.1c0.6-0.1,1.2-0.4,1.6-0.9c0.4-0.5,0.7-1.2,0.6-1.9c0-0.6-0.2-1.2-0.5-1.7c-0.3-0.5-0.8-0.8-1.4-1
	c-1.3-0.3-2.6-0.4-4-0.3L86.2,50.7z M104.3,60.4V38.4h4.5v18.3H120v3.8H104.3z M122.3,49.4c-0.1-2,0.3-3.9,1-5.7
	c0.5-1.1,1.2-2.2,2.1-3.1c0.8-0.9,1.8-1.5,2.9-2c1.5-0.6,3.2-0.9,4.8-0.9c2.9-0.1,5.8,1,7.9,3.1c2,2,3,4.9,3,8.5
	c0,3.6-1,6.4-2.9,8.4c-2.1,2.1-4.9,3.2-7.8,3c-2.9,0.1-5.8-1-7.9-3C123.2,55.8,122.3,53,122.3,49.4L122.3,49.4z M126.9,49.3
	c-0.1,2.1,0.5,4.1,1.7,5.7c2.2,2.4,6,2.6,8.5,0.4c0.1-0.1,0.2-0.2,0.4-0.4c1.1-1.3,1.7-3.2,1.7-5.8c0-2.6-0.6-4.5-1.7-5.7
	c-2.4-2.5-6.3-2.5-8.8-0.1c0,0,0,0,0,0c0,0-0.1,0.1-0.1,0.1C127.5,44.8,126.9,46.7,126.9,49.3L126.9,49.3z M146.4,49.4
	c-0.1-2,0.3-3.9,1-5.7c0.5-1.1,1.2-2.2,2.1-3.1c0.8-0.9,1.8-1.5,2.9-2c1.5-0.6,3.2-0.9,4.8-0.9c2.9-0.1,5.8,1,7.9,3.1
	c2,2,3,4.9,3,8.5c0,3.6-1,6.4-2.9,8.4c-2.1,2.1-4.9,3.2-7.8,3c-2.9,0.1-5.8-1-7.9-3C147.4,55.8,146.4,53,146.4,49.4L146.4,49.4z
	 M151.1,49.3c-0.1,2.1,0.5,4.1,1.7,5.7c2.2,2.4,6,2.6,8.5,0.4c0,0,0,0,0,0c0.1-0.1,0.2-0.2,0.4-0.4c1.1-1.3,1.7-3.2,1.7-5.8
	c0-2.6-0.6-4.5-1.7-5.7c-2.4-2.5-6.3-2.5-8.8-0.1c0,0-0.1,0.1-0.1,0.1C151.6,44.8,151.1,46.7,151.1,49.3L151.1,49.3z M171.5,60.4
	V38.2h6.7l4,15.2l4-15.2h6.7v22.3h-4.2V42.9l-4.4,17.5h-4.3l-4.4-17.5v17.5H171.5z M197.3,60.4V38.2h4.5v22.3H197.3z M206.1,60.4
	V38.2h4.4l9.1,14.9V38.2h4.2v22.3h-4.5l-9-14.5v14.5H206.1z M238.9,52.2v-3.8h9.7v8.9c-1.2,1.1-2.6,1.9-4.1,2.4
	c-1.7,0.7-3.6,1-5.4,1c-2.1,0.1-4.2-0.5-6.1-1.5c-1.7-1-3.1-2.4-3.9-4.2c-0.9-1.9-1.3-3.9-1.3-5.9c0-2.1,0.5-4.3,1.5-6.2
	c1-1.8,2.5-3.2,4.3-4.1c1.7-0.8,3.5-1.2,5.3-1.1c2.3-0.1,4.6,0.5,6.5,1.7c1.6,1.2,2.6,2.9,3,4.8l-4.5,0.8c-0.3-1-0.9-2-1.8-2.6
	c-0.9-0.7-2.1-1-3.2-0.9c-1.8-0.1-3.5,0.6-4.7,1.9c-1.3,1.6-1.9,3.5-1.7,5.5c0,2.6,0.6,4.6,1.8,5.9c1.2,1.3,2.9,2,4.6,2
	c1,0,1.9-0.2,2.8-0.6c0.9-0.3,1.7-0.8,2.4-1.3v-2.8L238.9,52.2z M257.7,60.4V41.9h-6.6v-3.8h17.7v3.8h-6.6v18.5H257.7z M270.2,49.4
	c-0.1-2,0.3-3.9,1-5.7c0.5-1.1,1.2-2.2,2.1-3.1c0.8-0.9,1.8-1.5,2.9-2c1.5-0.6,3.2-0.9,4.8-0.9c2.9-0.1,5.8,1,7.9,3.1
	c2,2,3,4.9,3,8.5c0,3.6-1,6.4-2.9,8.4c-2.1,2.1-4.9,3.2-7.8,3c-2.9,0.1-5.8-1-7.9-3C271.2,55.8,270.2,53,270.2,49.4L270.2,49.4z
	 M274.9,49.3c-0.1,2.1,0.5,4.1,1.7,5.7c2.2,2.4,6,2.6,8.5,0.4c0.1-0.1,0.2-0.2,0.4-0.4c1.1-1.3,1.7-3.2,1.7-5.8
	c0-2.6-0.6-4.5-1.7-5.7c-2.4-2.5-6.3-2.5-8.8-0.1c0,0,0,0,0,0c0,0-0.1,0.1-0.1,0.1C275.4,44.8,274.9,46.7,274.9,49.3L274.9,49.3z
	 M295.4,60.4V38.2h4.4l9.1,14.9V38.2h4.2v22.3h-4.5l-9-14.5v14.5H295.4z"/>
<path id="City_Of" class="st0" d="M95.3,24.1l2.6,0.6c-0.4,1.9-1.4,3.6-2.9,4.8c-1.5,1.1-3.3,1.7-5.1,1.7c-1.8,0.1-3.5-0.4-5.1-1.3
	c-1.3-0.9-2.4-2.2-3-3.7c-0.7-1.6-1-3.4-1-5.2c0-1.8,0.4-3.6,1.2-5.3c0.7-1.4,1.9-2.6,3.3-3.4c1.4-0.8,3.1-1.2,4.7-1.2
	c1.7-0.1,3.5,0.5,4.9,1.5c1.4,1,2.3,2.5,2.8,4.2L95,17.4c-0.3-1.2-1-2.3-2-3.1c-0.9-0.7-2.1-1-3.2-1c-1.3,0-2.6,0.3-3.7,1.1
	c-1,0.7-1.7,1.7-2.1,2.9c-0.4,1.2-0.6,2.4-0.6,3.7c0,1.5,0.2,2.9,0.7,4.3c0.4,1.1,1.2,2.1,2.2,2.7c1,0.6,2.1,0.9,3.3,0.9
	c1.3,0,2.6-0.4,3.6-1.2C94.4,26.8,95.1,25.5,95.3,24.1z M101.5,30.9V11.6h2.6v19.3L101.5,30.9z M113.5,30.9v-17h-6.4v-2.3h15.3v2.3
	H116v17L113.5,30.9z M130.5,30.9v-8.2L123,11.6h3.1l3.8,5.8c0.7,1.1,1.4,2.2,2,3.3c0.6-1,1.3-2.1,2.1-3.4l3.7-5.7h3L133,22.7v8.2
	L130.5,30.9z M149.3,21.5c-0.2-2.8,0.8-5.5,2.6-7.5c1.7-1.8,4.2-2.8,6.7-2.7c1.7,0,3.4,0.4,4.8,1.3c1.4,0.8,2.6,2.1,3.3,3.6
	c0.8,1.6,1.2,3.4,1.1,5.2c0,1.8-0.4,3.6-1.2,5.3c-0.7,1.5-1.9,2.7-3.4,3.5c-1.4,0.8-3.1,1.2-4.7,1.2c-1.7,0-3.4-0.4-4.9-1.3
	c-1.4-0.9-2.5-2.1-3.3-3.6C149.7,24.8,149.3,23.1,149.3,21.5z M151.9,21.5c-0.1,2,0.6,4,1.9,5.5c2.5,2.6,6.7,2.7,9.3,0.2
	c0.1-0.1,0.1-0.1,0.2-0.2c1.3-1.6,2-3.7,1.9-5.8c0-1.4-0.2-2.8-0.8-4.1c-0.5-1.1-1.3-2.1-2.3-2.7c-1-0.6-2.2-1-3.4-1
	c-1.7,0-3.4,0.6-4.7,1.9C152.6,16.5,151.9,18.6,151.9,21.5L151.9,21.5z M171.2,30.9V11.6h13v2.3h-10.5v6h9.1v2.3h-9.1v8.8H171.2z"/>
<path id="logo" class="st0" d="M43.1,0v13.6L49.7,7v14.3l-6.6,6.3l-6.7-7.1l-7.5,7.1l-6.5-6.8V7.2l6.7,6.7V0.2L29,0l7.4,6.8L43.1,0z
	 M16.3,10.9l-4.5-4.6v5.8H6.5l4.5,4.4l-4.4,4.2h13.7V7.1L16.3,10.9z M62.1,16.7l4.5-4.6h-5.8V7l-4.4,4.5l-4.2-4.4v13.7h13.7
	L62.1,16.7z M35.7,67.1l7.4,6.8L43,73.8V60.2l6.7,6.7V53.2l-6.5-6.8l-7.5,7.1L29,46.3l-6.6,6.3V67l6.7-6.7V74L35.7,67.1z M55.9,63.1
	l4.5,4.5v-5.8h5.2l-4.5-4.4l4.4-4.2H51.7v13.7L55.9,63.1z M10,57.3l-4.5,4.5h5.8V67l4.4-4.5l4.2,4.4V53.1H6.2L10,57.3z M6.8,36.8
	L0,44.2l0.2-0.1h13.6l-6.7,6.7h13.6l6.8-6.5l-7.1-7.5l7.1-6.7l-6.3-6.6H7l6.7,6.7H0L6.8,36.8z M66,37.4l6.8-7.4l-0.2,0.1H59l6.7-6.7
	H52L45.2,30l7.1,7.5l-7.1,6.7l6.3,6.6h14.3l-6.7-6.7h13.6L66,37.4z"/>
</svg>
